<svg width="100px" height="150px" viewBox="0 0 107 26" fill="" xmlns="http://www.w3.org/2000/svg"><path fill-rule="evenodd" clip-rule="evenodd" d="M41.6314 18.9397L40.1707 25.6957H36.8231L42.3618 1.10638H46.318L51.5524 25.6957H48.1439L46.7441 18.8789H41.6314V18.9397ZM46.3789 16.2008L45.2224 10.2969C44.9181 8.59273 44.5529 6.40161 44.3095 4.6974H44.1877C43.9443 6.46247 43.5791 8.77533 43.2139 10.2969L42.0575 16.2008H46.3789Z" fill="currentColor"></path><path fill-rule="evenodd" clip-rule="evenodd" d="M64.3948 0.43689V21.1309C64.3948 22.4699 64.4557 24.4784 64.5165 25.6957H61.5342L61.2907 23.5654H61.169C60.5603 24.7827 59.2213 26 57.4562 26C54.1695 26 52.161 22.409 52.161 16.9312C52.161 10.6621 54.8391 7.67978 57.6388 7.67978C59.0387 7.67978 60.1951 8.34929 60.8038 9.68831H60.8647V0.43689H64.3948ZM60.9864 14.7401C60.9864 14.4358 60.9864 14.0097 60.9255 13.6445C60.7429 12.062 59.83 10.6621 58.6127 10.6621C56.4824 10.6621 55.752 13.6445 55.752 16.9312C55.752 20.5831 56.7259 23.1394 58.5518 23.1394C59.343 23.1394 60.3169 22.7133 60.9255 20.6439C60.9864 20.3396 61.0472 19.9136 61.0472 19.4875V14.7401H60.9864Z" fill="currentColor"></path><path fill-rule="evenodd" clip-rule="evenodd" d="M72.6115 26C69.0813 26 66.525 22.9568 66.525 16.8703C66.525 10.4187 69.5683 7.67978 72.7941 7.67978C76.3242 7.67978 78.8197 10.8447 78.8197 16.8095C78.8197 23.8698 75.3504 26 72.6115 26ZM72.6724 23.322C74.8026 23.322 75.2895 19.5484 75.2895 16.8703C75.2895 14.1923 74.8026 10.4187 72.6115 10.4187C70.3595 10.4187 69.9334 14.1923 69.9334 16.8703C69.9334 19.7918 70.4204 23.322 72.6724 23.322Z" fill="currentColor"></path><path fill-rule="evenodd" clip-rule="evenodd" d="M80.8891 0.43689H84.2975V9.99264H84.3584C85.2713 8.41016 86.4886 7.67978 88.0711 7.67978C91.1143 7.67978 93.0012 11.0882 93.0012 16.566C93.0012 22.8959 90.384 26 87.4625 26C85.6974 26 84.7236 25.0262 83.9323 23.5046H83.8106L83.628 25.7566H80.6456C80.7065 24.5393 80.7674 22.5307 80.7674 21.1917V0.43689H80.8891ZM84.2975 19.4267C84.2975 19.8527 84.3584 20.2179 84.4192 20.5222C84.967 22.6525 86.0017 23.1394 86.7321 23.1394C88.8015 23.1394 89.5319 20.4614 89.5319 16.8095C89.5319 13.4011 88.7406 10.6621 86.6712 10.6621C85.5148 10.6621 84.6018 12.0012 84.3584 13.2793C84.2975 13.6445 84.2366 14.1314 84.2366 14.4966V19.4267H84.2975Z" fill="currentColor"></path><path fill-rule="evenodd" clip-rule="evenodd" d="M98.1137 17.5398C98.1746 22.1047 100.122 23.2611 102.192 23.2611C103.409 23.2611 104.504 22.9568 105.235 22.5916L105.722 25.087C104.687 25.6348 103.044 25.9392 101.461 25.9392C97.0181 25.9392 94.6444 22.5916 94.6444 17.1138C94.6444 11.3316 97.3224 7.74063 100.974 7.74063C104.687 7.74063 106.391 11.2708 106.391 15.7139C106.391 16.566 106.33 17.1138 106.33 17.6007L98.1137 17.5398ZM103.226 15.1053C103.287 11.9403 102.192 10.2969 100.792 10.2969C99.0267 10.2969 98.1746 12.9141 98.1137 15.1053H103.226Z" fill="currentColor"></path><path fill-rule="evenodd" clip-rule="evenodd" d="M17.4681 1.16727H27.7543V25.6957L17.4681 1.16727Z" fill="currentColor"></path><path fill-rule="evenodd" clip-rule="evenodd" d="M10.2861 1.16727H0V25.6957L10.2861 1.16727Z" fill="currentColor"></path><path fill-rule="evenodd" clip-rule="evenodd" d="M13.8772 10.1752L20.3897 25.6957H16.1291L14.1815 20.7656H9.37317L13.8772 10.1752Z" fill="currentColor"></path><path fill-rule="evenodd" clip-rule="evenodd" d="M106.209 7.6189C106.635 7.6189 107 7.98408 107 8.41014C107 8.83619 106.635 9.20138 106.209 9.20138C105.783 9.20138 105.417 8.83619 105.417 8.41014C105.417 7.98408 105.783 7.6189 106.209 7.6189ZM106.209 7.74063C105.844 7.74063 105.6 8.04495 105.6 8.41014C105.6 8.77532 105.904 9.07965 106.209 9.07965C106.574 9.07965 106.817 8.77532 106.817 8.41014C106.817 8.04495 106.574 7.74063 106.209 7.74063ZM106.026 8.89705H105.904V8.04495C105.965 8.04495 106.026 8.04495 106.148 8.04495C106.27 8.04495 106.391 8.04495 106.391 8.10581C106.452 8.16668 106.452 8.22754 106.452 8.28841C106.452 8.41014 106.391 8.471 106.27 8.53187C106.33 8.53187 106.391 8.59273 106.391 8.77532C106.391 8.89705 106.452 8.95792 106.452 9.01878H106.33C106.33 9.01878 106.27 8.89705 106.27 8.77532C106.27 8.65359 106.209 8.59273 106.087 8.59273H105.965V8.89705H106.026ZM106.026 8.41014H106.148C106.27 8.41014 106.391 8.34927 106.391 8.28841C106.391 8.22754 106.33 8.10581 106.148 8.10581C106.087 8.10581 106.087 8.10581 106.026 8.10581V8.41014Z" fill="currentColor"></path><path fill-rule="evenodd" clip-rule="evenodd" d="M29.0934 1.16727C29.5194 1.16727 29.8846 1.53245 29.8846 1.95851C29.8846 2.38456 29.5194 2.74975 29.0934 2.74975C28.6673 2.74975 28.3021 2.38456 28.3021 1.95851C28.3021 1.53245 28.6673 1.16727 29.0934 1.16727ZM29.0934 1.289C28.7282 1.289 28.4847 1.59332 28.4847 1.95851C28.4847 2.32369 28.789 2.62802 29.0934 2.62802C29.4586 2.62802 29.702 2.32369 29.702 1.95851C29.702 1.59332 29.4586 1.289 29.0934 1.289ZM28.9108 2.38456H28.789V1.53245C28.8499 1.53245 28.9108 1.53245 29.0325 1.53245C29.1542 1.53245 29.276 1.53245 29.276 1.59332C29.3368 1.65418 29.3368 1.71505 29.3368 1.77591C29.3368 1.89764 29.276 1.95851 29.1542 2.01937C29.2151 2.01937 29.276 2.08024 29.276 2.26283C29.276 2.38456 29.3368 2.44542 29.3368 2.50629H29.2151C29.2151 2.50629 29.1542 2.38456 29.1542 2.26283C29.1542 2.1411 29.0934 2.08024 28.9716 2.08024H28.8499V2.38456H28.9108ZM28.9108 1.89764H29.0325C29.1542 1.89764 29.276 1.83678 29.276 1.77591C29.276 1.71505 29.2151 1.59332 29.0325 1.59332C28.9716 1.59332 28.9716 1.59332 28.9108 1.59332V1.89764Z" fill="currentColor"></path></svg>